<?xml version="1.0" encoding="UTF-8"?>
<svg width="26px" height="26px" viewBox="0 0 26 26" version="1.1" xmlns="http://www.w3.org/2000/svg" xmlns:xlink="http://www.w3.org/1999/xlink">
    <!-- Generator: Sketch 50.2 (55047) - http://www.bohemiancoding.com/sketch -->
    <title>instagram copy</title>
    <desc>Created with Sketch.</desc>
    <defs>
        <polygon id="path-1" points="0 7.34790833e-15 26 7.34790833e-15 26 26 8.15182762e-16 26 5.60609836e-20 0"></polygon>
    </defs>
    <g id="Page-1" stroke="none" stroke-width="1" fill="none" fill-rule="evenodd">
        <g id="Mobile" transform="translate(-25.000000, -3667.000000)">
            <g id="Group-2" transform="translate(24.000000, 3653.000000)">
                <g id="instagram-copy" transform="translate(1.000000, 14.000000)">
                    <mask id="mask-2" fill="white">
                        <use xlink:href="#path-1"></use>
                    </mask>
                    <g id="Clip-2"></g>
                    <path d="M13,0 C9.46845915,0 9.02688728,0.0155112755 7.6401241,0.0775563775 C6.25646329,0.14166965 5.31127198,0.360895677 4.48397104,0.682496122 C3.62874871,1.01443742 2.90382627,1.45909398 2.1820062,2.18088534 C1.45915202,2.90474486 1.01447777,3.62963847 0.681489142,4.48379271 C0.360910031,5.31106073 0.140641158,6.25621445 0.0775594623,7.63982023 C0.0144777663,9.02652826 0,9.46911665 0,12.999483 C0,16.5298493 0.0144777663,16.9724377 0.0775594623,18.3591457 C0.140641158,19.7427515 0.360910031,20.6879052 0.681489142,21.5151732 C1.01447777,22.3693274 1.45915202,23.0942211 2.1820062,23.8170465 C2.90382627,24.5398719 3.62874871,24.9845285 4.48397104,25.3164698 C5.31127198,25.6380702 6.25646329,25.8583304 7.6401241,25.9203755 C9.02688728,25.9844887 9.46845915,26 13,26 C16.5305067,26 16.9731127,25.9844887 18.3598759,25.9203755 C19.7435367,25.8583304 20.688728,25.6380702 21.5149948,25.3164698 C22.3702172,24.9845285 23.0951396,24.5398719 23.8179938,23.8170465 C24.540848,23.0942211 24.9855222,22.3693274 25.3174767,21.5151732 C25.63909,20.6879052 25.8593588,19.7427515 25.9224405,18.3591457 C25.9855222,16.9724377 26,16.5298493 26,12.999483 C26,9.46911665 25.9855222,9.02652826 25.9224405,7.63982023 C25.8593588,6.25621445 25.63909,5.31106073 25.3174767,4.48379271 C24.9855222,3.62963847 24.540848,2.90474486 23.8179938,2.18088534 C23.0951396,1.45909398 22.3702172,1.01443742 21.5149948,0.682496122 C20.688728,0.360895677 19.7435367,0.14166965 18.3598759,0.0775563775 C16.9731127,0.0155112755 16.5305067,0 13,0 M13,2.3422026 C16.4705274,2.3422026 16.8821096,2.35461162 18.2533609,2.41769081 C19.5201655,2.47663366 20.2088935,2.687587 20.6670114,2.86544963 C21.2740434,3.10122102 21.7063082,3.38249214 22.1613237,3.83748956 C22.6163392,4.29248697 22.8986556,4.7257686 23.1344364,5.33277652 C23.3123061,5.79087619 23.524302,6.47957682 23.582213,7.74633099 C23.6442606,9.11649366 23.6577042,9.5280595 23.6577042,12.999483 C23.6577042,16.4709064 23.6442606,16.8814382 23.582213,18.2516008 C23.524302,19.5204232 23.3123061,20.2080897 23.1344364,20.6661894 C22.8986556,21.2731973 22.6163392,21.7054449 22.1613237,22.1614764 C21.7063082,22.6154397 21.2740434,22.8977449 20.6670114,23.1335163 C20.2088935,23.3113789 19.5201655,23.5233663 18.2533609,23.5812751 C16.8821096,23.6433202 16.4715615,23.6567633 13,23.6567633 C9.52843847,23.6567633 9.11789038,23.6433202 7.74663909,23.5812751 C6.47880041,23.5233663 5.79110651,23.3113789 5.3319545,23.1335163 C4.72595657,22.8977449 4.2926577,22.6154397 3.83764219,22.1614764 C3.38262668,21.7054449 3.10134436,21.2731973 2.8655636,20.6661894 C2.6876939,20.2080897 2.47569804,19.5204232 2.41778697,18.2516008 C2.3557394,16.8814382 2.34229576,16.4709064 2.34229576,12.999483 C2.34229576,9.5280595 2.3557394,9.11649366 2.41778697,7.74633099 C2.47569804,6.47957682 2.6876939,5.79087619 2.8655636,5.33277652 C3.10134436,4.7257686 3.38262668,4.29248697 3.83764219,3.83748956 C4.2926577,3.38249214 4.72595657,3.10122102 5.3319545,2.86544963 C5.79110651,2.687587 6.47880041,2.47663366 7.74663909,2.41769081 C9.11789038,2.35461162 9.52843847,2.3422026 13,2.3422026" id="Fill-1" fill="#1A4B9D" mask="url(#mask-2)"></path>
                    <path d="M12.5811648,17.7748507 C10.1760539,17.7748507 8.22618872,15.8249854 8.22618872,13.4198745 C8.22618872,11.0137242 10.1760539,9.06385902 12.5811648,9.06385902 C14.9862758,9.06385902 16.936141,11.0137242 16.936141,13.4198745 C16.936141,15.8249854 14.9862758,17.7748507 12.5811648,17.7748507 M12.5811648,6.70967742 C8.87579733,6.70967742 5.87096774,9.71346764 5.87096774,13.4198745 C5.87096774,17.125242 8.87579733,20.1290323 12.5811648,20.1290323 C16.2865324,20.1290323 19.2903226,17.125242 19.2903226,13.4198745 C19.2903226,9.71346764 16.2865324,6.70967742 12.5811648,6.70967742" id="Fill-4" fill="#1A4B9D" mask="url(#mask-2)"></path>
                    <path d="M21.8064516,6.70967742 C21.8064516,7.63564847 21.0558662,8.38709677 20.1295882,8.38709677 C19.2033103,8.38709677 18.4516129,7.63564847 18.4516129,6.70967742 C18.4516129,5.78370636 19.2033103,5.03225806 20.1295882,5.03225806 C21.0558662,5.03225806 21.8064516,5.78370636 21.8064516,6.70967742" id="Fill-6" fill="#1A4B9D" mask="url(#mask-2)"></path>
                </g>
            </g>
        </g>
    </g>
</svg>